<svg xmlns="http://www.w3.org/2000/svg" width="256" height="256" viewBox="0 0 256 256">
  <defs>
    <linearGradient id="g" x1="0" x2="1" y1="0" y2="1">
      <stop offset="0" stop-color="#f7a28b" stop-opacity="1"/>
      <stop offset="1" stop-color="#ffd3c8" stop-opacity="1"/>
    </linearGradient>
    <filter id="s" x="-20%" y="-20%" width="140%" height="140%">
      <feDropShadow dx="0" dy="10" stdDeviation="10" flood-color="#000" flood-opacity=".35"/>
    </filter>
  </defs>
  
  <rect x="22" y="22" width="212" height="212" rx="64" fill="rgba(255,255,255,0.08)" stroke="rgba(255,255,255,0.14)"/>
  <path d="M80 154c18 18 34 26 48 26 14 0 30-8 48-26" fill="none" stroke="url(#g)" stroke-width="14" stroke-linecap="round"/>
  <path d="M128 66c-24 14-38 34-38 56 0 30 20 52 38 64 18-12 38-34 38-64 0-22-14-42-38-56z" fill="rgba(0,0,0,0.16)" stroke="rgba(255,255,255,0.16)" stroke-width="8"/>
  <path d="M128 92v52" stroke="url(#g)" stroke-width="12" stroke-linecap="round"/>
  <path d="M102 118h52" stroke="url(#g)" stroke-width="12" stroke-linecap="round"/>

</svg>